HIERARCHY
ROOT SimulationBone
{
	OFFSET 0.000000 0.000000 0.000000
	CHANNELS 6 Xposition Yposition Zposition Zrotation Yrotation Xrotation 
	JOINT Hips
	{
		OFFSET 0.000000 0.000000 0.000000
		CHANNELS 6 Xposition Yposition Zposition Zrotation Yrotation Xrotation 
		JOINT RightUpLeg
		{
			OFFSET 0.103457 1.857831 10.548505
			CHANNELS 3 Zrotation Yrotation Xrotation
			JOINT RightLeg
			{
				OFFSET 43.500000 -0.000038 -0.000004
				CHANNELS 3 Zrotation Yrotation Xrotation
				JOINT RightFoot
				{
					OFFSET 42.372208 0.000027 -0.000004
					CHANNELS 3 Zrotation Yrotation Xrotation
					JOINT RightToe
					{
						OFFSET 17.300005 0.000002 0.000002
						CHANNELS 3 Zrotation Yrotation Xrotation
						End Site
						{
							OFFSET 0.000000 0.000000 0.000000
						}
					}
				}
			}
		}
		JOINT LeftUpLeg
		{
			OFFSET 0.103462 1.857825 -10.548504
			CHANNELS 3 Zrotation Yrotation Xrotation
			JOINT LeftLeg
			{
				OFFSET 43.500042 -0.000027 0.000011
				CHANNELS 3 Zrotation Yrotation Xrotation
				JOINT LeftFoot
				{
					OFFSET 42.372265 -0.000015 0.000012
					CHANNELS 3 Zrotation Yrotation Xrotation
					JOINT LeftToe
					{
						OFFSET 17.299988 -0.000007 0.000010
						CHANNELS 3 Zrotation Yrotation Xrotation
						End Site
						{
							OFFSET 0.000000 0.000000 0.000000
						}
					}
				}
			}
		}
		JOINT Spine
		{
			OFFSET 6.901970 -2.603737 0.000000
			CHANNELS 3 Zrotation Yrotation Xrotation
			JOINT Spine1
			{
				OFFSET 12.588099 0.000007 0.000001
				CHANNELS 3 Zrotation Yrotation Xrotation
				JOINT Spine2
				{
					OFFSET 12.343201 0.000001 0.000000
					CHANNELS 3 Zrotation Yrotation Xrotation
					JOINT Neck
					{
						OFFSET 25.832897 -0.000008 -0.000001
						CHANNELS 3 Zrotation Yrotation Xrotation
						JOINT Head
						{
							OFFSET 11.766607 0.000021 0.000000
							CHANNELS 3 Zrotation Yrotation Xrotation
							End Site
							{
								OFFSET 0.000000 0.000000 0.000000
							}
						}
					}
					JOINT RightShoulder
					{
						OFFSET 19.745903 -1.480373 6.000104
						CHANNELS 3 Zrotation Yrotation Xrotation
						JOINT RightArm
						{
							OFFSET 11.284125 -0.000018 -0.000023
							CHANNELS 3 Zrotation Yrotation Xrotation
							JOINT RightForeArm
							{
								OFFSET 33.000050 0.000010 0.000034
								CHANNELS 3 Zrotation Yrotation Xrotation
								JOINT RightHand
								{
									OFFSET 25.200010 0.000001 -0.000001
									CHANNELS 3 Zrotation Yrotation Xrotation
									End Site
									{
										OFFSET 0.000000 0.000000 0.000000
									}
								}
							}
						}
					}
					JOINT LeftShoulder
					{
						OFFSET 19.746090 -1.480381 -6.000076
						CHANNELS 3 Zrotation Yrotation Xrotation
						JOINT LeftArm
						{
							OFFSET 11.284138 -0.000019 -0.000020
							CHANNELS 3 Zrotation Yrotation Xrotation
							JOINT LeftForeArm
							{
								OFFSET 33.000092 0.000024 0.000022
								CHANNELS 3 Zrotation Yrotation Xrotation
								JOINT LeftHand
								{
									OFFSET 25.199774 0.000133 0.000423
									CHANNELS 3 Zrotation Yrotation Xrotation
									End Site
									{
										OFFSET 0.000000 0.000000 0.000000
									}
								}
							}
						}
					}
				}
			}
		}
	}
}
MOTION
Frames: 5
Frame Time: 0.016667
179.188058 0.000000 480.824943 0.000000 -66.691488 0.000000 -0.839176 80.415871 1.106086 96.071797 3.608301 175.650447 158.032423 -4.710199 179.211460 -66.375689 -0.823407 -5.393225 103.898999 3.436423 -4.717847 21.454555 0.003108 0.000016 172.489570 19.389100 -176.534340 -49.771027 -4.025629 3.894848 90.622566 1.790451 29.061791 21.454553 -0.003099 -0.000001 10.703796 0.590530 -0.768796 11.387352 1.253917 -1.475741 11.069278 1.244852 -1.483292 -2.847048 1.463985 -7.736641 -17.333586 -1.043111 -6.993318 135.831709 -71.758641 43.968650 -2.906785 57.518414 36.003504 -72.090433 -10.450872 2.298527 -1.819787 -18.387617 39.809425 173.185907 75.419792 -5.584317 -11.793671 -52.172153 -32.269351 -61.586237 13.818801 -2.077503 6.086399 21.225101 -11.815509 
177.754309 0.000000 480.777511 0.000000 -67.770318 0.000000 -0.624295 78.843196 1.409568 96.623887 3.950221 178.389409 155.598513 -4.671526 -177.642108 -70.921033 -0.050763 -5.623707 104.459935 3.550832 -6.881592 21.454558 0.003112 0.000016 173.047900 19.064109 -176.741694 -52.332389 -3.118163 2.059570 96.074702 1.834505 30.593311 21.454553 -0.003097 -0.000001 10.765430 0.646236 -0.729682 11.510467 1.361899 -1.391391 11.192397 1.353319 -1.399582 -3.895357 1.692548 -8.348415 -17.100199 -0.951302 -7.537482 136.908541 -70.713503 42.959469 -5.473065 55.710222 35.019275 -69.810139 -11.015280 2.249294 -1.955009 -18.423918 41.692901 174.193236 74.184070 -4.591305 -13.572825 -51.032087 -31.414406 -59.032310 14.729624 -2.016913 6.380692 21.401490 -9.766735 
176.401187 0.000000 480.776055 0.000000 -68.817476 0.000000 -0.383907 77.972328 1.603505 97.622592 4.210712 179.783334 155.054788 -5.387698 -176.355061 -73.237099 0.462117 -5.778063 104.794096 3.619301 -8.308248 21.454558 0.003107 0.000016 173.482994 18.533206 -175.650868 -54.272337 -2.640739 1.844995 99.453373 1.005841 29.840163 21.454553 -0.003091 -0.000000 10.949204 0.651404 -0.519157 11.880629 1.352741 -0.968664 11.562512 1.346717 -0.976814 -4.335621 1.721621 -8.727070 -16.978880 -0.858066 -7.927302 137.733604 -69.606953 42.209686 -8.118660 54.546401 32.467177 -68.666514 -11.900008 2.257852 -1.416479 -17.268081 44.339214 172.294389 73.527208 -6.559907 -15.816316 -50.689801 -29.434621 -55.029529 15.652676 -1.963027 6.955909 21.129199 -7.980804 
175.126074 0.000000 480.816892 0.000000 -69.832430 0.000000 -0.152676 77.694846 1.693726 98.670810 4.250681 -179.718620 155.794004 -6.394009 -176.174385 -73.597732 0.699111 -5.955579 104.971761 3.719751 -9.234344 21.454556 0.003101 0.000016 173.799301 17.960753 -173.891920 -55.373841 -2.605266 2.329290 101.410505 0.050563 27.901012 21.454552 -0.003085 0.000001 11.133126 0.588375 -0.250710 12.251785 1.200052 -0.437684 11.933639 1.197250 -0.444936 -4.264832 1.640305 -8.859853 -16.849185 -0.761827 -8.123693 138.352626 -68.703258 41.652013 -10.619543 54.136896 29.042587 -67.882837 -12.876784 2.291099 -0.731146 -15.997932 46.194375 169.303099 73.277742 -9.637787 -18.511931 -50.955917 -26.739344 -50.139606 16.410983 -1.862715 7.843365 20.523714 -6.261724 
173.926355 0.000000 480.896342 0.000000 -70.814779 0.000000 0.035531 77.902328 1.688291 99.375024 3.948133 -179.671429 157.223838 -7.131101 -176.352739 -72.278304 0.639183 -6.286398 105.059503 3.939393 -9.895813 21.454555 0.003100 0.000016 174.020133 17.522285 -172.087422 -55.443117 -3.101495 2.577412 102.553998 -0.460703 25.931683 21.454553 -0.003083 0.000002 11.195008 0.440992 -0.037783 12.377422 0.883509 -0.028125 12.059290 0.883195 -0.033482 -3.782261 1.530347 -8.737683 -16.590538 -0.660118 -8.087159 138.823893 -68.265709 41.206379 -12.888526 54.641959 25.320770 -66.678006 -13.716159 2.302672 -0.545329 -15.625552 45.706959 166.719903 73.310479 -12.285692 -21.668289 -51.657075 -23.720966 -44.938214 16.823690 -1.714865 9.079999 19.693693 -4.413296 
